<mxfile host="www.draw.io" modified="2020-03-26T03:24:10.391Z" agent="Mozilla/5.0 (Macintosh; Intel Mac OS X 10_14_4) AppleWebKit/537.36 (KHTML, like Gecko) Chrome/80.0.3987.132 Safari/537.36" etag="w5H6xRzQZQsAaukbmNgI" version="12.8.8" type="github">
  <diagram id="RqCNI5uH1cGCmJL3m-6E" name="第 1 页">
    <mxGraphModel dx="932" dy="508" grid="1" gridSize="10" guides="1" tooltips="1" connect="1" arrows="1" fold="1" page="1" pageScale="1" pageWidth="2354" pageHeight="1336" math="0" shadow="0">
      <root>
        <mxCell id="0" />
        <mxCell id="1" parent="0" />
        <mxCell id="o9h1rn5uUwiuAYsAVZBC-2" value="巡检机器人" style="outlineConnect=0;fontColor=#232F3E;gradientColor=#FE5151;gradientDirection=north;fillColor=#BE0917;strokeColor=#ffffff;dashed=0;verticalLabelPosition=bottom;verticalAlign=top;align=center;html=1;fontSize=12;fontStyle=0;aspect=fixed;shape=mxgraph.aws4.resourceIcon;resIcon=mxgraph.aws4.robotics;" vertex="1" parent="1">
          <mxGeometry x="210" y="110" width="50" height="50" as="geometry" />
        </mxCell>
        <mxCell id="o9h1rn5uUwiuAYsAVZBC-12" style="edgeStyle=orthogonalEdgeStyle;curved=1;rounded=0;orthogonalLoop=1;jettySize=auto;html=1;exitX=0.5;exitY=0;exitDx=0;exitDy=0;entryX=0;entryY=0.325;entryDx=0;entryDy=0;entryPerimeter=0;" edge="1" parent="1" source="o9h1rn5uUwiuAYsAVZBC-3" target="o9h1rn5uUwiuAYsAVZBC-4">
          <mxGeometry relative="1" as="geometry" />
        </mxCell>
        <mxCell id="o9h1rn5uUwiuAYsAVZBC-13" value="ros" style="text;html=1;align=center;verticalAlign=middle;resizable=0;points=[];labelBackgroundColor=#ffffff;" vertex="1" connectable="0" parent="o9h1rn5uUwiuAYsAVZBC-12">
          <mxGeometry x="-0.3393" y="-15" relative="1" as="geometry">
            <mxPoint as="offset" />
          </mxGeometry>
        </mxCell>
        <mxCell id="o9h1rn5uUwiuAYsAVZBC-3" value="激光定位" style="ellipse;whiteSpace=wrap;html=1;" vertex="1" parent="1">
          <mxGeometry x="110" y="100" width="60" height="40" as="geometry" />
        </mxCell>
        <mxCell id="o9h1rn5uUwiuAYsAVZBC-8" style="edgeStyle=orthogonalEdgeStyle;rounded=0;orthogonalLoop=1;jettySize=auto;html=1;exitX=1;exitY=0.5;exitDx=0;exitDy=0;entryX=0.5;entryY=0;entryDx=0;entryDy=0;curved=1;" edge="1" parent="1" source="o9h1rn5uUwiuAYsAVZBC-4" target="o9h1rn5uUwiuAYsAVZBC-5">
          <mxGeometry relative="1" as="geometry" />
        </mxCell>
        <mxCell id="o9h1rn5uUwiuAYsAVZBC-14" value="ros" style="text;html=1;align=center;verticalAlign=middle;resizable=0;points=[];labelBackgroundColor=#ffffff;" vertex="1" connectable="0" parent="o9h1rn5uUwiuAYsAVZBC-8">
          <mxGeometry x="-0.2381" y="-3" relative="1" as="geometry">
            <mxPoint as="offset" />
          </mxGeometry>
        </mxCell>
        <mxCell id="o9h1rn5uUwiuAYsAVZBC-4" value="运动控制" style="ellipse;whiteSpace=wrap;html=1;" vertex="1" parent="1">
          <mxGeometry x="205" y="40" width="60" height="40" as="geometry" />
        </mxCell>
        <mxCell id="o9h1rn5uUwiuAYsAVZBC-9" style="edgeStyle=orthogonalEdgeStyle;curved=1;rounded=0;orthogonalLoop=1;jettySize=auto;html=1;exitX=0.5;exitY=1;exitDx=0;exitDy=0;entryX=1;entryY=0.5;entryDx=0;entryDy=0;" edge="1" parent="1" source="o9h1rn5uUwiuAYsAVZBC-5" target="o9h1rn5uUwiuAYsAVZBC-6">
          <mxGeometry relative="1" as="geometry">
            <mxPoint x="320" y="190" as="targetPoint" />
          </mxGeometry>
        </mxCell>
        <mxCell id="o9h1rn5uUwiuAYsAVZBC-15" value="ros" style="text;html=1;align=center;verticalAlign=middle;resizable=0;points=[];labelBackgroundColor=#ffffff;" vertex="1" connectable="0" parent="o9h1rn5uUwiuAYsAVZBC-9">
          <mxGeometry x="-0.1273" y="-1" relative="1" as="geometry">
            <mxPoint as="offset" />
          </mxGeometry>
        </mxCell>
        <mxCell id="o9h1rn5uUwiuAYsAVZBC-5" value="避障" style="ellipse;whiteSpace=wrap;html=1;" vertex="1" parent="1">
          <mxGeometry x="300" y="100" width="60" height="40" as="geometry" />
        </mxCell>
        <mxCell id="o9h1rn5uUwiuAYsAVZBC-10" style="edgeStyle=orthogonalEdgeStyle;curved=1;rounded=0;orthogonalLoop=1;jettySize=auto;html=1;exitX=0;exitY=0.5;exitDx=0;exitDy=0;entryX=1;entryY=0.5;entryDx=0;entryDy=0;" edge="1" parent="1" source="o9h1rn5uUwiuAYsAVZBC-6" target="o9h1rn5uUwiuAYsAVZBC-7">
          <mxGeometry relative="1" as="geometry" />
        </mxCell>
        <mxCell id="o9h1rn5uUwiuAYsAVZBC-16" value="ros" style="text;html=1;align=center;verticalAlign=middle;resizable=0;points=[];labelBackgroundColor=#ffffff;" vertex="1" connectable="0" parent="o9h1rn5uUwiuAYsAVZBC-10">
          <mxGeometry y="-2" relative="1" as="geometry">
            <mxPoint as="offset" />
          </mxGeometry>
        </mxCell>
        <mxCell id="o9h1rn5uUwiuAYsAVZBC-6" value="可见光视频" style="ellipse;whiteSpace=wrap;html=1;" vertex="1" parent="1">
          <mxGeometry x="260" y="200" width="60" height="40" as="geometry" />
        </mxCell>
        <mxCell id="o9h1rn5uUwiuAYsAVZBC-11" style="edgeStyle=orthogonalEdgeStyle;curved=1;rounded=0;orthogonalLoop=1;jettySize=auto;html=1;exitX=0;exitY=0.5;exitDx=0;exitDy=0;" edge="1" parent="1" source="o9h1rn5uUwiuAYsAVZBC-7" target="o9h1rn5uUwiuAYsAVZBC-3">
          <mxGeometry relative="1" as="geometry">
            <Array as="points">
              <mxPoint x="130" y="210" />
              <mxPoint x="130" y="165" />
              <mxPoint x="140" y="165" />
            </Array>
          </mxGeometry>
        </mxCell>
        <mxCell id="o9h1rn5uUwiuAYsAVZBC-17" value="ros" style="text;html=1;align=center;verticalAlign=middle;resizable=0;points=[];labelBackgroundColor=#ffffff;" vertex="1" connectable="0" parent="o9h1rn5uUwiuAYsAVZBC-11">
          <mxGeometry x="-0.0333" y="1" relative="1" as="geometry">
            <mxPoint as="offset" />
          </mxGeometry>
        </mxCell>
        <mxCell id="o9h1rn5uUwiuAYsAVZBC-7" value="红外视频" style="ellipse;whiteSpace=wrap;html=1;" vertex="1" parent="1">
          <mxGeometry x="160" y="200" width="60" height="40" as="geometry" />
        </mxCell>
        <mxCell id="o9h1rn5uUwiuAYsAVZBC-18" value="" style="ellipse;whiteSpace=wrap;html=1;" vertex="1" parent="1">
          <mxGeometry x="405" y="300" width="240" height="160" as="geometry" />
        </mxCell>
        <mxCell id="o9h1rn5uUwiuAYsAVZBC-19" value="机器人服务" style="text;html=1;strokeColor=none;fillColor=none;align=center;verticalAlign=middle;whiteSpace=wrap;rounded=0;" vertex="1" parent="1">
          <mxGeometry x="490" y="330" width="70" height="20" as="geometry" />
        </mxCell>
        <mxCell id="o9h1rn5uUwiuAYsAVZBC-20" value="mqtt协议/订阅/发布" style="shape=flexArrow;endArrow=classic;startArrow=classic;html=1;exitX=0;exitY=0;exitDx=0;exitDy=0;" edge="1" parent="1" source="o9h1rn5uUwiuAYsAVZBC-18" target="o9h1rn5uUwiuAYsAVZBC-2">
          <mxGeometry x="-0.2268" y="1" width="50" height="50" relative="1" as="geometry">
            <mxPoint x="240" y="200" as="sourcePoint" />
            <mxPoint x="290" y="150" as="targetPoint" />
            <mxPoint as="offset" />
          </mxGeometry>
        </mxCell>
      </root>
    </mxGraphModel>
  </diagram>
</mxfile>
